<svg width="12" height="7" viewBox="0 0 12 7" fill="none" xmlns="http://www.w3.org/2000/svg">
<path d="M0.0332785 1.20666C0.00494015 1.12203 -0.00611684 1.03257 0.000763125 0.943583C0.00764309 0.8546 0.03232 0.767904 0.0733306 0.688636C0.114341 0.609367 0.170851 0.53914 0.239508 0.482119C0.308166 0.425097 0.387574 0.382441 0.473024 0.356681C0.558475 0.330921 0.648227 0.322581 0.736961 0.332155C0.825695 0.341729 0.911603 0.369022 0.989592 0.412417C1.06758 0.455811 1.13606 0.514424 1.19098 0.584778C1.24589 0.655133 1.28612 0.735797 1.30928 0.821989C2.69995 5.47932 9.29728 5.47999 10.6893 0.824656C10.7142 0.740697 10.7555 0.662475 10.8107 0.594456C10.8658 0.526437 10.9339 0.469952 11.0109 0.428228C11.0879 0.386503 11.1724 0.360356 11.2595 0.351278C11.3466 0.342201 11.4347 0.350371 11.5186 0.375322C11.6026 0.400273 11.6808 0.441517 11.7488 0.496699C11.8168 0.55188 11.8733 0.619918 11.915 0.696929C11.9568 0.77394 11.9829 0.858414 11.992 0.94553C12.0011 1.03265 11.9929 1.1207 11.9679 1.20466C11.7254 2.03878 11.314 2.81415 10.7593 3.48266L11.6093 4.33332C11.7307 4.45906 11.7979 4.62746 11.7964 4.80226C11.7949 4.97705 11.7248 5.14426 11.6012 5.26787C11.4776 5.39147 11.3103 5.46159 11.1355 5.46311C10.9607 5.46462 10.7923 5.39743 10.6666 5.27599L9.79261 4.40199C9.32092 4.75766 8.79988 5.04266 8.24595 5.24799L8.48395 6.13799C8.50933 6.22336 8.51736 6.31294 8.50755 6.40147C8.49774 6.48999 8.4703 6.57564 8.42683 6.65338C8.38337 6.73112 8.32477 6.79936 8.25449 6.85407C8.18422 6.90879 8.10369 6.94886 8.01767 6.97194C7.93165 6.99502 7.84188 7.00062 7.75365 6.98843C7.66543 6.97623 7.58054 6.94648 7.50401 6.90093C7.42747 6.85539 7.36084 6.79497 7.30804 6.72324C7.25525 6.65151 7.21736 6.56994 7.19661 6.48332L6.95395 5.57866C6.32261 5.67199 5.67728 5.67199 5.04595 5.57866L4.80328 6.48332C4.78253 6.56994 4.74464 6.65151 4.69185 6.72324C4.63905 6.79497 4.57242 6.85539 4.49588 6.90093C4.41935 6.94648 4.33446 6.97623 4.24624 6.98843C4.15801 7.00062 4.06824 6.99502 3.98222 6.97194C3.8962 6.94886 3.81567 6.90879 3.7454 6.85407C3.67512 6.79936 3.61652 6.73112 3.57306 6.65338C3.5296 6.57564 3.50215 6.48999 3.49234 6.40147C3.48253 6.31294 3.49056 6.22336 3.51595 6.13799L3.75395 5.24799C3.19998 5.04244 2.67894 4.75722 2.20728 4.40132L1.33395 5.27599C1.20894 5.40117 1.03933 5.47157 0.862416 5.47169C0.685507 5.47182 0.515794 5.40166 0.390612 5.27666C0.26543 5.15165 0.195033 4.98204 0.194908 4.80513C0.194783 4.62822 0.26494 4.4585 0.389945 4.33332L1.23995 3.48332C0.717279 2.85932 0.299945 2.10066 0.0319453 1.20732L0.0332785 1.20666Z" fill="white"/>
</svg>
