<svg width="14" height="10" viewBox="0 0 14 10" fill="none" xmlns="http://www.w3.org/2000/svg">
<path fill-rule="evenodd" clip-rule="evenodd" d="M1.66671 5.00068V5.00001C1.66871 4.98934 1.67804 4.93068 1.73004 4.81534C1.78737 4.68801 1.88004 4.52801 2.01271 4.34334C2.27804 3.97468 2.67471 3.54868 3.17604 3.14468C4.18471 2.33068 5.54137 1.66668 7.00004 1.66668C8.45871 1.66668 9.81537 2.33068 10.824 3.14401C11.3254 3.54801 11.722 3.97401 11.9874 4.34268C12.1207 4.52734 12.2127 4.68734 12.27 4.81468C12.322 4.93001 12.3314 4.98868 12.3334 4.99934V5.00001C12.3314 5.01068 12.322 5.06934 12.27 5.18468C12.1913 5.35081 12.0967 5.50888 11.9874 5.65668C11.722 6.02534 11.3254 6.45134 10.824 6.85534C9.81604 7.66934 8.45871 8.33334 7.00004 8.33334C5.54137 8.33334 4.18471 7.66934 3.17604 6.85601C2.67471 6.45201 2.27804 6.02601 2.01271 5.65734C1.90331 5.50961 1.80864 5.35152 1.73004 5.18534C1.7009 5.12684 1.67961 5.06475 1.66671 5.00068ZM7.00004 0.333344C5.14471 0.333344 3.50137 1.16934 2.33937 2.10601C1.75471 2.57668 1.27271 3.08868 0.930707 3.56401C0.76876 3.784 0.629179 4.01962 0.514041 4.26734C0.415374 4.48668 0.333374 4.74068 0.333374 5.00001C0.333374 5.25868 0.415374 5.51401 0.513374 5.73268C0.616707 5.96068 0.760041 6.19934 0.930707 6.43601C1.27271 6.91134 1.75471 7.42268 2.33937 7.89401C3.50137 8.83068 5.14471 9.66668 7.00004 9.66668C8.85537 9.66668 10.4987 8.83068 11.6607 7.89401C12.2454 7.42334 12.7274 6.91134 13.0694 6.43601C13.2407 6.19868 13.3834 5.96068 13.486 5.73268C13.5847 5.51401 13.6667 5.25934 13.6667 5.00001C13.6667 4.74134 13.5847 4.48601 13.4867 4.26734C13.3712 4.01967 13.2314 3.78407 13.0694 3.56401C12.7274 3.08868 12.2454 2.57734 11.6607 2.10601C10.4987 1.16934 8.85537 0.333344 7.00004 0.333344ZM6.33337 5.00001C6.33337 4.8232 6.40361 4.65363 6.52864 4.52861C6.65366 4.40358 6.82323 4.33334 7.00004 4.33334C7.17685 4.33334 7.34642 4.40358 7.47144 4.52861C7.59647 4.65363 7.66671 4.8232 7.66671 5.00001C7.66671 5.17682 7.59647 5.34639 7.47144 5.47141C7.34642 5.59644 7.17685 5.66668 7.00004 5.66668C6.82323 5.66668 6.65366 5.59644 6.52864 5.47141C6.40361 5.34639 6.33337 5.17682 6.33337 5.00001ZM7.00004 3.00001C6.46961 3.00001 5.9609 3.21072 5.58583 3.5858C5.21075 3.96087 5.00004 4.46958 5.00004 5.00001C5.00004 5.53044 5.21075 6.03915 5.58583 6.41422C5.9609 6.7893 6.46961 7.00001 7.00004 7.00001C7.53047 7.00001 8.03918 6.7893 8.41425 6.41422C8.78933 6.03915 9.00004 5.53044 9.00004 5.00001C9.00004 4.46958 8.78933 3.96087 8.41425 3.5858C8.03918 3.21072 7.53047 3.00001 7.00004 3.00001Z" fill="white"/>
</svg>
